<svg version="1.1" id="Layer_1" xmlns="http://www.w3.org/2000/svg" xmlns:xlink="http://www.w3.org/1999/xlink" x="0px" y="0px" width="2012.473px" height="500px" viewBox="0 0 2012.473 500" enable-background="new 0 0 2012.473 500" xml:space="preserve">
<g>
  <path fill="#383636" d="M1851.254,83.562h-23.003h-138.307l14.061-80.866h-103.63l-14.072,80.866h-138.032h-23.049h-138.17h-23.003   h-139.426l0.012-0.091H943.953l-41.038,234.009l-55.921,0.114l40.764-234.032H726.574h-23.038h-57.543L660.345,0h-103.55   l-14.546,83.562H404.137h-23.003H242.958h-23.038H58.736L0,420.459h103.636l26.487-151.008h57.389l-26.328,151.008h161.213h23.043   h138.181h23.004h138.181h23.043h137.936l-0.058,0.354h75.556c0,0,1.348,0,3.135,0c3.718,0,9.389,0,9.172,0h70.147L949.904,500   h101.728l13.94-79.541h139.746h23.037h138.13h23.043h138.181h23.05h57.531h23.049h138.363l-13.82,79.519h184.223l72.368-416.416   H1851.254z"/>
  <path fill="#FCC00F" d="M992.69,240.474h78.753l23.552-134.514H960.286l-41.403,235.905h-78.879l-9.823,56.378h134.697   l14.141-78.981h22.98l-27.978,157.94l55.869,0.057l37.646-214.307l-78.799,0.034L992.69,240.474z M1006.408,162.109h22.478   l-3.586,22.227h-22.741L1006.408,162.109z"/>
  <polygon fill="#9D4F99" points="627.827,187.717 601.471,339.158 578.685,339.158 609.101,164.896 689.362,164.896    699.493,106.782 619.255,106.782 633.692,23.221 576.023,23.221 510.874,397.215 648.86,397.215 685.381,187.717  "/>
  <path fill="#9D4F99" d="M722.713,106.782l-5.557,30.827l-4.757,27.287h80.678l-4.037,23.22h-80.501l-36.458,209.098h137.792   l13.986-79.575h0.28l36.755-210.857H722.713z M762.695,339.158h-22.826l15.819-92.962h23.209L762.695,339.158z"/>
  <polygon fill="#FCC00F" points="1199.75,106.782 1159.22,339.158 1136.399,339.158 1176.923,106.782 1119.243,106.782    1068.622,397.215 1206.614,397.215 1257.241,106.782  "/>
  <polygon fill="#9D4F99" points="400.322,106.782 349.649,397.215 407.318,397.215 447.46,164.896 470.681,164.896 430.533,397.215    487.67,397.215 538.212,106.782  "/>
  <polygon fill="#FCC00F" points="1609.363,84.019 1666.952,84.019 1667.032,83.562 1667.169,83.562 1677.654,25.916 1619.46,25.916    1608.987,83.562 1609.443,83.562  "/>
  <polygon fill="#9D4F99" points="193.302,236.226 201.691,188.117 121.425,188.117 125.445,164.896 205.741,164.896    215.872,106.782 77.919,106.782 27.241,397.215 84.921,397.215 110.894,246.196 191.526,246.196  "/>
  <path fill="#9D4F99" d="M239.092,106.782l-4.397,24.408l-5.848,33.706h80.609l-4.038,23.22h-80.5l-36.447,209.098h137.981   l50.627-290.433H239.092z M279.08,339.158h-22.833l15.819-92.962h23.215L279.08,339.158z"/>
  <polygon fill="#FCC00F" points="1283.226,106.782 1232.56,397.215 1290.228,397.215 1330.381,164.896 1353.584,164.896    1313.448,397.215 1370.54,397.215 1421.173,106.782  "/>
  <polygon fill="#FCC00F" points="1686.21,106.782 1635.588,397.215 1693.269,397.215 1733.358,164.896 1756.579,164.896    1716.466,397.215 1773.746,397.215 1824.219,106.782  "/>
  <path fill="#FCC00F" d="M1847.199,106.782l-4.911,28.246l-45.15,260.394h80.627l-4.032,23.243h-80.626l-10.143,58.058h138.215   l64.259-369.94H1847.199z M1887.907,337.331h-23.004l29.766-172.435h23.003L1887.907,337.331z"/>
  <polygon fill="#FCC00F" points="1444.41,106.782 1393.777,397.215 1451.446,397.215 1491.548,164.896 1514.769,164.896    1474.655,397.215 1531.753,397.215 1582.271,106.782  "/>
  <polygon fill="#FCC00F" points="1605.32,107.239 1580.478,249.84 1554.87,397.215 1612.345,397.215 1662.909,107.239  "/>
</g>
</svg>